{"title":"Reasonable.Doubt.2014.BBRip.XviD-TODE","uid":9702363,"size":717749228,"categoryP":"video","categoryS":"movies","magnet":"?xt=urn:btih:a37c866ab09bc2ff693ada53db141a12c43df472&amp;dn=Reasonable.Doubt.2014.BBRip.XviD-TODE&amp;tr=udp%3A%2F%2Ftracker.openbittorrent.com%3A80&amp;tr=udp%3A%2F%2Fopen.demonii.com%3A1337&amp;tr=udp%3A%2F%2Ftracker.coppersurfer.tk%3A6969&amp;tr=udp%3A%2F%2Fexodus.desync.com%3A6969","seeders":1,"leechers":2,"uploader":"xxxlavalxxx","files":-1,"time":1394025218,"description":" &lt;a href=&quot;\nhttp://www.imdb.com/title/tt2304953/&quot; rel=&quot;nofollow&quot; target=&quot;_NEW&quot;&gt;\nhttp://www.imdb.com/title/tt2304953/&lt;/a&gt;\n\n\nA District Attorney has his life turned upside down when he's involved in a hit and run and another man is arrested for his crime and charged with murder.\n\nDirector: Peter Howitt\nWriter: Peter A. Dowling\nStars: Samuel L. Jackson, Dominic Cooper, Erin Karpluk\nGenres: Crime | Thriller\nCountry: Germany | Canada\nLanguage: English\n\n\nThanks : PHD\n\n\nFormat                                   : AVI\nFormat/Info                              : Audio Video Interleave\nFile size                                : 684 MiB\nDuration                                 : 1h 31mn\nOverall bit rate                         : 1 048 Kbps\nWriting library                          : VirtualDub build 35491/release\n\nVideo\nID                                       : 0\nFormat                                   : MPEG-4 Visual\nFormat profile                           : Advanced Simple@L5\nFormat settings, BVOP                    : 2\nFormat settings, QPel                    : No\nFormat settings, GMC                     : No warppoints\nFormat settings, Matrix                  : Default (H.263)\nMuxing mode                              : Packed bitstream\nCodec ID                                 : XVID\nCodec ID/Hint                            : XviD\nDuration                                 : 1h 31mn\nBit rate                                 : 911 Kbps\nWidth                                    : 640 pixels\nHeight                                   : 266 pixels\nDisplay aspect ratio                     : 2.40:1\nFrame rate                               : 23.976 fps\nColor space                              : YUV\nChroma subsampling                       : 4:2:0\nBit depth                                : 8 bits\nScan type                                : Progressive\nCompression mode                         : Lossy\nBits/(Pixel*Frame)                       : 0.223\nStream size                              : 595 MiB (87%)\nWriting library                          : XviD 64\n\nAudio\nID                                       : 1\nFormat                                   : MPEG Audio\nFormat version                           : Version 1\nFormat profile                           : Layer 3\nMode                                     : Joint stereo\nCodec ID                                 : 55\nCodec ID/Hint                            : MP3\nDuration                                 : 1h 31mn\nBit rate mode                            : Constant\nBit rate                                 : 128 Kbps\nChannel(s)                               : 2 channels\nSampling rate                            : 48.0 KHz\nCompression mode                         : Lossy\nStream size                              : 83.6 MiB (12%)\nAlignment                                : Split accross interleaves\nInterleave, duration                     : 42 ms (1.00 video frame)\nInterleave, preload duration             : 500 ms\n\n\n\nscreens\n &lt;a href=&quot;\nhttp://i.imgur.com/UyxJLJG.jpg&quot; rel=&quot;nofollow&quot; target=&quot;_NEW&quot;&gt;\nhttp://i.imgur.com/UyxJLJG.jpg&lt;/a&gt; &lt;a href=&quot;\nhttp://i.imgur.com/W1tjbjn.jpg&quot; rel=&quot;nofollow&quot; target=&quot;_NEW&quot;&gt;\nhttp://i.imgur.com/W1tjbjn.jpg&lt;/a&gt; &lt;a href=&quot;\nhttp://i.imgur.com/bRkBwPQ.jpg&quot; rel=&quot;nofollow&quot; target=&quot;_NEW&quot;&gt;\nhttp://i.imgur.com/bRkBwPQ.jpg&lt;/a&gt; &lt;a href=&quot;\nhttp://i.imgur.com/VSulNmi.jpg&quot; rel=&quot;nofollow&quot; target=&quot;_NEW&quot;&gt;\nhttp://i.imgur.com/VSulNmi.jpg&lt;/a&gt; &lt;a href=&quot;\nhttp://i.imgur.com/IZdkVjV.jpg&quot; rel=&quot;nofollow&quot; target=&quot;_NEW&quot;&gt;\nhttp://i.imgur.com/IZdkVjV.jpg&lt;/a&gt;","torrent":{"xt":"urn:btih:a37c866ab09bc2ff693ada53db141a12c43df472","amp;dn":"Reasonable.Doubt.2014.BBRip.XviD-TODE","amp;tr":["udp%3A%2F%2Ftracker.openbittorrent.com%3A80","udp%3A%2F%2Fopen.demonii.com%3A1337","udp%3A%2F%2Ftracker.coppersurfer.tk%3A6969","udp%3A%2F%2Fexodus.desync.com%3A6969"],"infoHash":"a37c866ab09bc2ff693ada53db141a12c43df472","infoHashBuffer":{"type":"Buffer","data":[163,124,134,106,176,155,194,255,105,58,218,83,219,20,26,18,196,61,244,114]},"announce":[],"urlList":[]}}